<?xml version="1.0"?>
<svg xmlns="http://www.w3.org/2000/svg" xmlns:xlink="http://www.w3.org/1999/xlink" version="1.1" width="376px" height="376px" viewBox="0 0 376 376"><rect x="0" y="0" width="376" height="376" fill="#ffffff" fill-opacity="1"/><path fill="#000000" fill-opacity="1" d="M14,14L98,14L98,26L14,26ZM170,14L206,14L206,26L170,26ZM230,14L242,14L242,26L230,26ZM278,14L362,14L362,26L278,26ZM14,26L26,26L26,38L14,38ZM86,26L98,26L98,38L86,38ZM134,26L158,26L158,38L134,38ZM170,26L242,26L242,38L170,38ZM254,26L266,26L266,38L254,38ZM278,26L290,26L290,38L278,38ZM350,26L362,26L362,38L350,38ZM14,38L26,38L26,50L14,50ZM38,38L74,38L74,50L38,50ZM86,38L98,38L98,50L86,50ZM110,38L146,38L146,50L110,50ZM170,38L182,38L182,50L170,50ZM194,38L206,38L206,50L194,50ZM242,38L254,38L254,50L242,50ZM278,38L290,38L290,50L278,50ZM302,38L338,38L338,50L302,50ZM350,38L362,38L362,50L350,50ZM14,50L26,50L26,62L14,62ZM38,50L74,50L74,62L38,62ZM86,50L98,50L98,62L86,62ZM110,50L122,50L122,62L110,62ZM182,50L206,50L206,62L182,62ZM218,50L242,50L242,62L218,62ZM278,50L290,50L290,62L278,62ZM302,50L338,50L338,62L302,62ZM350,50L362,50L362,62L350,62ZM14,62L26,62L26,74L14,74ZM38,62L74,62L74,74L38,74ZM86,62L98,62L98,74L86,74ZM110,62L122,62L122,74L110,74ZM194,62L218,62L218,74L194,74ZM230,62L254,62L254,74L230,74ZM278,62L290,62L290,74L278,74ZM302,62L338,62L338,74L302,74ZM350,62L362,62L362,74L350,74ZM14,74L26,74L26,86L14,86ZM86,74L98,74L98,86L86,86ZM110,74L122,74L122,86L110,86ZM146,74L158,74L158,86L146,86ZM218,74L242,74L242,86L218,86ZM254,74L266,74L266,86L254,86ZM278,74L290,74L290,86L278,86ZM350,74L362,74L362,86L350,86ZM14,86L98,86L98,98L14,98ZM110,86L122,86L122,98L110,98ZM134,86L146,86L146,98L134,98ZM158,86L170,86L170,98L158,98ZM182,86L194,86L194,98L182,98ZM206,86L218,86L218,98L206,98ZM230,86L242,86L242,98L230,98ZM254,86L266,86L266,98L254,98ZM278,86L362,86L362,98L278,98ZM110,98L158,98L158,110L110,110ZM182,98L194,98L194,110L182,110ZM206,98L218,98L218,110L206,110ZM242,98L254,98L254,110L242,110ZM14,110L26,110L26,122L14,122ZM38,110L98,110L98,122L38,122ZM158,110L170,110L170,122L158,122ZM206,110L242,110L242,122L206,122ZM254,110L266,110L266,122L254,122ZM278,110L338,110L338,122L278,122ZM62,122L74,122L74,134L62,134ZM122,122L134,122L134,134L122,134ZM170,122L206,122L206,134L170,134ZM242,122L302,122L302,134L242,134ZM314,122L326,122L326,134L314,134ZM338,122L350,122L350,134L338,134ZM26,134L50,134L50,146L26,146ZM62,134L98,134L98,146L62,146ZM110,134L122,134L122,146L110,146ZM134,134L146,134L146,146L134,146ZM170,134L242,134L242,146L170,146ZM254,134L266,134L266,146L254,146ZM314,134L338,134L338,146L314,146ZM26,146L62,146L62,158L26,158ZM74,146L86,146L86,158L74,158ZM98,146L134,146L134,158L98,158ZM158,146L182,146L182,158L158,158ZM194,146L206,146L206,158L194,158ZM242,146L254,146L254,158L242,158ZM266,146L290,146L290,158L266,158ZM302,146L326,146L326,158L302,158ZM350,146L362,146L362,158L350,158ZM14,158L38,158L38,170L14,170ZM74,158L110,158L110,170L74,170ZM122,158L134,158L134,170L122,170ZM158,158L170,158L170,170L158,170ZM182,158L206,158L206,170L182,170ZM254,158L266,158L266,170L254,170ZM278,158L314,158L314,170L278,170ZM14,170L50,170L50,182L14,182ZM62,170L74,170L74,182L62,182ZM98,170L170,170L170,182L98,182ZM194,170L218,170L218,182L194,182ZM242,170L254,170L254,182L242,182ZM302,170L326,170L326,182L302,182ZM338,170L350,170L350,182L338,182ZM14,182L98,182L98,194L14,194ZM122,182L146,182L146,194L122,194ZM218,182L242,182L242,194L218,194ZM254,182L266,182L266,194L254,194ZM314,182L362,182L362,194L314,194ZM14,194L38,194L38,206L14,206ZM62,194L86,194L86,206L62,206ZM98,194L122,194L122,206L98,206ZM134,194L146,194L146,206L134,206ZM182,194L194,194L194,206L182,206ZM206,194L218,194L218,206L206,206ZM242,194L254,194L254,206L242,206ZM266,194L314,194L314,206L266,206ZM338,194L362,194L362,206L338,206ZM62,206L74,206L74,218L62,218ZM86,206L98,206L98,218L86,218ZM110,206L134,206L134,218L110,218ZM146,206L158,206L158,218L146,218ZM206,206L242,206L242,218L206,218ZM254,206L266,206L266,218L254,218ZM290,206L302,206L302,218L290,218ZM14,218L38,218L38,230L14,230ZM62,218L86,218L86,230L62,230ZM98,218L110,218L110,230L98,230ZM146,218L158,218L158,230L146,230ZM170,218L206,218L206,230L170,230ZM290,218L326,218L326,230L290,230ZM338,218L362,218L362,230L338,230ZM14,230L26,230L26,242L14,242ZM62,230L98,230L98,242L62,242ZM122,230L278,230L278,242L122,242ZM290,230L302,230L302,242L290,242ZM314,230L362,230L362,242L314,242ZM14,242L26,242L26,254L14,254ZM38,242L50,242L50,254L38,254ZM98,242L122,242L122,254L98,254ZM134,242L158,242L158,254L134,254ZM170,242L182,242L182,254L170,254ZM194,242L206,242L206,254L194,254ZM242,242L254,242L254,254L242,254ZM266,242L314,242L314,254L266,254ZM14,254L26,254L26,266L14,266ZM50,254L158,254L158,266L50,266ZM182,254L206,254L206,266L182,266ZM218,254L230,254L230,266L218,266ZM254,254L350,254L350,266L254,266ZM110,266L134,266L134,278L110,278ZM146,266L170,266L170,278L146,278ZM194,266L218,266L218,278L194,278ZM242,266L266,266L266,278L242,278ZM302,266L314,266L314,278L302,278ZM338,266L350,266L350,278L338,278ZM14,278L98,278L98,290L14,290ZM146,278L170,278L170,290L146,290ZM230,278L242,278L242,290L230,290ZM254,278L266,278L266,290L254,290ZM278,278L290,278L290,290L278,290ZM302,278L338,278L338,290L302,290ZM14,290L26,290L26,302L14,302ZM86,290L98,290L98,302L86,302ZM110,290L122,290L122,302L110,302ZM134,290L146,290L146,302L134,302ZM182,290L194,290L194,302L182,302ZM206,290L218,290L218,302L206,302ZM230,290L242,290L242,302L230,302ZM254,290L266,290L266,302L254,302ZM302,290L314,290L314,302L302,302ZM326,290L362,290L362,302L326,302ZM14,302L26,302L26,314L14,314ZM38,302L74,302L74,314L38,314ZM86,302L98,302L98,314L86,314ZM110,302L122,302L122,314L110,314ZM146,302L170,302L170,314L146,314ZM206,302L218,302L218,314L206,314ZM230,302L242,302L242,314L230,314ZM254,302L314,302L314,314L254,314ZM326,302L362,302L362,314L326,314ZM14,314L26,314L26,326L14,326ZM38,314L74,314L74,326L38,326ZM86,314L98,314L98,326L86,326ZM110,314L134,314L134,326L110,326ZM146,314L206,314L206,326L146,326ZM218,314L266,314L266,326L218,326ZM278,314L302,314L302,326L278,326ZM14,326L26,326L26,338L14,338ZM38,326L74,326L74,338L38,338ZM86,326L98,326L98,338L86,338ZM110,326L146,326L146,338L110,338ZM170,326L182,326L182,338L170,338ZM194,326L230,326L230,338L194,338ZM278,326L302,326L302,338L278,338ZM326,326L350,326L350,338L326,338ZM14,338L26,338L26,350L14,350ZM86,338L98,338L98,350L86,350ZM122,338L134,338L134,350L122,350ZM146,338L158,338L158,350L146,350ZM194,338L206,338L206,350L194,350ZM218,338L254,338L254,350L218,350ZM266,338L278,338L278,350L266,350ZM314,338L338,338L338,350L314,350ZM350,338L362,338L362,350L350,350ZM14,350L98,350L98,362L14,362ZM110,350L170,350L170,362L110,362ZM182,350L206,350L206,362L182,362ZM254,350L266,350L266,362L254,362ZM278,350L290,350L290,362L278,362ZM302,350L338,350L338,362L302,362Z"/></svg>
